<?xml version="1.0" standalone="no"?>
<!DOCTYPE svg PUBLIC "-//W3C//DTD SVG 1.1//EN" "http://www.w3.org/Graphics/SVG/1.1/DTD/svg11.dtd" >
<!--
2013-9-30: Created.
-->
<svg>
<metadata>
Created by iconfont
</metadata>
<defs>

<font id="iconfont" horiz-adv-x="1024" >
  <font-face
    font-family="iconfont"
    font-weight="500"
    font-stretch="normal"
    units-per-em="1024"
    ascent="896"
    descent="-128"
  />
    <missing-glyph />
    
    <glyph glyph-name="xiangshangjiantou" unicode="&#58899;" d="M209.922057 219.682743l38.498826-39.621393 277.219789 285.306978 277.223882-285.306978 38.497802 39.621393L525.640672 544.605997 209.922057 219.682743zM209.922057 219.682743"  horiz-adv-x="1024" />

    
    <glyph glyph-name="sousuo" unicode="&#58900;" d="M402.149615 151.106766c-186.43104 0-338.116741 151.673421-338.116741 338.109578 0 186.443319 151.685701 338.116741 338.116741 338.116741 186.443319 0 338.116741-151.672398 338.116741-338.116741C740.266355 302.780187 588.592934 151.106766 402.149615 151.106766zM402.149615 772.129808c-155.998937 0-282.913465-126.914528-282.913465-282.913465 0-156.005077 126.914528-282.907325 282.913465-282.907325 155.997913 0 282.914488 126.902248 282.914488 282.907325C685.064103 645.21528 558.148551 772.129808 402.149615 772.129808zM202.269261 593.880101c-2.399653 0-4.824889 0.620124-7.03523 1.940189-6.550183 3.8814-8.706289 12.358469-4.811586 18.908652 44.178175 74.381058 125.31203 120.594589 211.727169 120.594589 7.628748 0 13.800307-6.172583 13.800307-13.800307 0-7.628748-6.172583-13.801331-13.800307-13.801331-76.726475 0-148.762115-41.037648-187.993628-107.090017C211.568045 596.293057 206.98568 593.880101 202.269261 593.880101zM169.842735 483.502202c-7.614421 0-13.800307 6.172583-13.800307 13.800307 0 19.596314 2.331092 30.512944 6.456039 48.127114 1.738597 7.426133 9.16473 12.008498 16.576537 10.296507 7.426133-1.738597 12.035104-9.150404 10.296507-16.576537-3.868097-16.536628-5.728468-25.216311-5.728468-41.847084C183.643042 489.674784 177.471482 483.502202 169.842735 483.502202zM874.661252-56.874079c-22.128997 0-42.911322 8.597819-58.558697 24.231891L593.338005 190.136687c-17.278525 17.278525-22.965038 38.625716-16.024975 60.135612 5.647627 17.494443 18.909675 32.263821 29.825282 43.154869 16.173354 16.173354 36.077683 32.722262 61.024865 32.722262 10.660804 0 26.643823-3.287883 42.264593-18.920932l222.777853-222.751247c15.634072-15.661701 24.245194-36.443004 24.245194-58.572 0-22.103414-8.611122-42.913369-24.245194-58.546418C917.559271-48.276261 896.777969-56.874079 874.661252-56.874079zM629.631606 232.373651c0.081864 0 0.809435-1.293459 2.736321-3.208065l222.76455-222.776829c10.41828-10.404977 28.626991-10.404977 39.043225 0 5.202489 5.228071 8.072863 12.155854 8.072863 19.514449 0 7.385201-2.870374 14.31196-8.086166 19.541055l-222.76455 222.753293c-1.953492 1.966795-3.261277 2.694365-3.597945 2.801812-0.201591-0.107447-5.875824-0.835018-21.63167-16.603143-15.754822-15.741519-16.508999-21.429055-16.549931-22.022573C629.631606 232.373651 629.631606 232.373651 629.631606 232.373651z"  horiz-adv-x="1024" />

    
    <glyph glyph-name="xiangzuoxi" unicode="&#58978;" d="M704 665.2 662.6 704 320 384 662.6 64 704 102.6 403 384Z"  horiz-adv-x="1024" />

    
    <glyph glyph-name="xiangxia" unicode="&#58981;" d="M793.2 576 832 534.6 512 192 192 534.6 230.6 576 512 275Z"  horiz-adv-x="1024" />

    
    <glyph glyph-name="xiangyou" unicode="&#58982;" d="M320 665.2 361.4 704 704 384 361.4 64 320 102.6 621 384Z"  horiz-adv-x="1024" />

    
    <glyph glyph-name="yonghu" unicode="&#58937;" d="M502.496 832.864c125.888 0 227.936-100.384 227.936-224.192 0-123.84-102.048-224.224-227.936-224.224-125.888 0-227.936 100.384-227.936 224.224C274.56 732.512 376.64 832.864 502.496 832.864L502.496 832.864zM502.496 832.864c125.888 0 227.936-100.384 227.936-224.192 0-123.84-102.048-224.224-227.936-224.224-125.888 0-227.936 100.384-227.936 224.224C274.56 732.512 376.64 832.864 502.496 832.864L502.496 832.864zM417.024 309.696l189.984 0c162.624 0 294.432-129.632 294.432-289.6l0-18.656c0-63.04-131.84-65.44-294.432-65.44l-189.984 0c-162.624 0-294.432 0.096-294.432 65.44l0 18.656C122.592 180.064 254.4 309.696 417.024 309.696L417.024 309.696zM417.024 309.696"  horiz-adv-x="1024" />

    
    <glyph glyph-name="yonghufangkeshu" unicode="&#59309;" d="M480 640C427.072 640 384 596.928 384 544S427.072 448 480 448 576 491.072 576 544 532.928 640 480 640zM480 832C214.848 832 0 617.152 0 352S214.848-128 480-128 960 86.848 960 352 745.152 832 480 832zM736 128c-17.664 0-32 14.336-32 32C704 283.52 603.52 384 480 384S256 283.52 256 160C256 142.336 241.664 128 224 128S192 142.336 192 160c0 120.64 74.688 223.808 180.096 266.624C340.288 455.872 320 497.408 320 544 320 632.256 391.744 704 480 704S640 632.256 640 544c0-46.592-20.288-88.128-52.096-117.376C693.312 383.808 768 280.64 768 160 768 142.336 753.664 128 736 128z"  horiz-adv-x="1024" />

    
    <glyph glyph-name="tuichu2" unicode="&#58957;" d="M1024 450.56 828.414771 270.334669l0 116.73472L506.88 387.069389l0 126.98112 321.53472 0 0 116.73472L1024 450.56zM690.174771 854.014669 100.34944 854.014669l314.37056-133.12 0-630.78528 275.45472 0L690.17472 344.06528l46.08 0 0-296.96L414.72 47.10528 414.72-128 0 47.105229 0 896l736.25472 0 0-339.97056-46.08 0L690.17472 854.01472 690.174771 854.014669zM690.174771 854.014669"  horiz-adv-x="1024" />

    
    <glyph glyph-name="xiugai07" unicode="&#59192;" d="M234.057143 142.628571c14.628571 0 29.257143 7.314286 43.885714 14.628571l7.314286 0-146.285714 146.285714 0-7.314286C131.657143 281.6 124.342857 266.971429 124.342857 252.342857L73.142857 91.428571 234.057143 142.628571 234.057143 142.628571 234.057143 142.628571 234.057143 142.628571zM746.057143 727.771429 702.171429 778.971429c-29.257143 29.257143-65.828571 29.257143-95.085714 0L563.2 727.771429l138.971429-138.971429 43.885714 43.885714C775.314286 661.942857 775.314286 705.828571 746.057143 727.771429L746.057143 727.771429 746.057143 727.771429 746.057143 727.771429zM658.285714 544.914286 519.314286 683.885714 190.171429 354.742857l138.971429-138.971429L658.285714 544.914286 658.285714 544.914286 658.285714 544.914286 658.285714 544.914286zM0 18.285714l1024 0 0-73.142857L0-54.857143 0 18.285714 0 18.285714z"  horiz-adv-x="1024" />

    
    <glyph glyph-name="zhuye" unicode="&#58948;" d="M963.161377 513.024585c-0.01842 8.944719-3.936659 17.438161-10.729365 23.25668L614.274338 825.887153c-11.608386 9.939373-28.756951 9.829879-40.2364-0.257873l-329.494363-289.605887c-6.631024-5.828752-10.432607-14.230096-10.432607-23.058159l0-418.240593c0-16.954137 13.744026-30.699186 30.699186-30.699186 16.954137 0 30.699186 13.745049 30.699186 30.699186L295.509341 499.074875 594.565461 761.927445l307.225173-263.114536 0.99363-504.114402-775.666098 0L127.118166 576.865589c0 16.95516-13.745049 30.699186-30.699186 30.699186s-30.699186-13.744026-30.699186-30.699186l0-583.858608c0-15.948227 6.210445-30.94171 17.48728-42.218544 11.276834-11.277858 26.270317-17.488303 42.218544-17.488303l779.054265 0c32.92283 0 59.706847 26.784016 59.706847 59.767222L963.161377 513.024585zM95.437629 678.695812c36.391838 0 65.999157-29.607318 65.999157-65.998133 0-16.954137 13.745049-30.699186 30.699186-30.699186s30.699186 13.745049 30.699186 30.699186c0 70.246901-57.150628 127.396505-127.397528 127.396505-16.954137 0-30.699186-13.745049-30.699186-30.699186S78.483492 678.695812 95.437629 678.695812zM132.699278 774.544811c63.051011 0 114.347305-51.296293 114.347305-114.347305 0-16.954137 13.745049-30.699186 30.699186-30.699186s30.699186 13.745049 30.699186 30.699186c0 96.907097-78.838579 175.745676-175.745676 175.745676-16.954137 0-30.699186-13.745049-30.699186-30.699186S115.744117 774.544811 132.699278 774.544811zM511.336898 286.935314l0 102.33062c0 16.954137-13.745049 30.699186-30.699186 30.699186-16.954137 0-30.699186-13.745049-30.699186-30.699186l0-102.33062c0-16.954137 13.745049-30.699186 30.699186-30.699186C497.592872 256.236128 511.336898 269.981177 511.336898 286.935314zM737.847771 286.935314l0 102.33062c0 16.954137-13.745049 30.699186-30.699186 30.699186s-30.699186-13.745049-30.699186-30.699186l0-102.33062c0-16.954137 13.745049-30.699186 30.699186-30.699186S737.847771 269.981177 737.847771 286.935314z"  horiz-adv-x="1024" />

    
    <glyph glyph-name="shanchu" unicode="&#58886;" d="M645.932 36.328h-241.543c-32.217 0-65.004 12.251-88.065 35.312-23.018 23.020-37.303 53.772-37.303 86.074v346.196c0 10.184 8.246 18.437 18.43 18.437s18.43-8.254 18.43-18.437v-346.197c0-22.595 10.357-43.851 26.512-60.005 16.197-16.198 39.488-24.521 61.997-24.521h241.543c22.454 0 43.108 8.084 59.542 24.521 16.005 16.002 24.055 36.69 24.055 60.005v346.197c0 10.184 8.246 18.437 18.43 18.437s18.43-8.254 18.43-18.437v-346.197c0-33.165-11.879-63.104-34.847-86.074-23.402-23.399-53.308-35.311-85.611-35.311zM447.961 111.815c-10.184 0-18.43 8.254-18.43 18.437v373.658c0 10.184 8.246 18.437 18.43 18.437s18.43-8.254 18.43-18.437v-373.658c0-10.184-8.246-18.437-18.43-18.437zM600.008 111.815c-10.184 0-18.942 8.254-18.942 18.437v373.658c0 10.184 8.758 18.437 18.942 18.437s18.942-8.254 18.942-18.437v-373.658c0-10.184-8.758-18.437-18.942-18.437zM243.706 566.664c-8.765 0-16.536 6.273-18.13 15.204-1.787 10.025 4.89 19.599 14.915 21.388l537.081 95.759c10.025 1.784 19.599-4.89 21.387-14.915 1.787-10.025-4.89-19.599-14.915-21.388l-537.081-95.76c-1.095-0.195-2.184-0.288-3.257-0.288zM414.453 664.791c-8.765 0-16.536 6.273-18.13 15.204-1.787 10.025 4.89 19.599 14.915 21.388l172.195 30.702c10.025 1.782 19.599-4.893 21.388-14.915 1.787-10.025-4.89-19.599-14.915-21.388l-172.195-30.702c-1.096-0.196-2.185-0.289-3.258-0.289z"  horiz-adv-x="1024" />

    
    <glyph glyph-name="duigou" unicode="&#58938;" d="M475.648-27.648c-4.608 0-9.728 1.536-13.312 4.608l-352.256 297.472c-8.704 7.168-9.728 19.968-2.56 28.672 7.168 8.704 19.968 9.728 28.672 2.56l333.312-281.6 432.64 749.568c5.632 9.728 18.432 13.312 28.16 7.68s13.312-18.432 7.68-28.16l-444.928-770.56c-3.072-5.12-8.192-8.704-14.336-9.728-1.024-0.512-2.048-0.512-3.072-0.512z"  horiz-adv-x="1024" />

    
    <glyph glyph-name="home" unicode="&#58887;" d="M1000.194537 431.627907L552.832411 878.990033c-23.813953 23.813953-61.23588 23.813953-83.348837 0L22.121448 431.627907c-37.421927-37.421927-10.20598-100.358804 42.524917-100.358804h15.30897c32.318937 0 59.534884-27.215947 59.534883-59.534884v-340.199335c0-32.318937 27.215947-59.534884 59.534884-59.534884h302.777409c32.318937 0 59.534884 27.215947 59.534883 59.534884V164.57142899999997c0 32.318937 27.215947 59.534884 59.534884 59.534883h78.245847c32.318937 0 59.534884-27.215947 59.534884-59.534883v-233.036545c0-32.318937 27.215947-59.534884 59.534884-59.534884h8.504983c32.318937 0 59.534884 27.215947 59.534884 59.534884v340.199335c0 32.318937 27.215947 59.534884 59.534884 59.534884h11.906976c52.730897 0 79.946844 62.936877 42.524917 100.358804z"  horiz-adv-x="1024" />

    
    <glyph glyph-name="chakan" unicode="&#58880;" d="M747.7 607.8c0 17.6-14.4 32.1-32.1 32.1H306.4c-17.6 0-32.1-14.4-32.1-32.1 0-17.6 14.4-32.1 32.1-32.1h409.2c17.7 0 32.1 14.5 32.1 32.1zM306.4 448c-17.6 0-32.1-14.4-32.1-32.1 0-17.6 14.4-32.1 32.1-32.1h191.1c17.7 0 32.2 14.4 32.1 32.1 0 17.6-14.4 32.1-32.1 32.1H306.4zM766.6 119.2c-2.1 2.1-4.4 3.9-6.9 5.2 18.1 25.8 28.7 57.1 28.7 90.9 0 88.2-72.4 159.6-161.7 159.6S465 303.5 465 215.3s72.4-159.6 161.7-159.6c32.7 0 63.2 9.6 88.7 26.1 1.5-2.9 3.4-5.6 5.8-8l83.3-83.3c12.5-12.5 32.9-12.5 45.4 0s12.5 32.9 0 45.4l-83.3 83.3z m-139.9-0.6c-54.1 0-98 43.3-98 96.7s43.9 96.7 98 96.7 98-43.3 98-96.7c0-53.4-43.8-96.7-98-96.7zM577.6 0.6H221.2c-35.2 0-64 28.8-64 64V703.2c0 35.2 28.8 64 64 64h547.3c35.2 0 64-28.8 64-64v-318.4h0.3v-0.1c0-17.7 14.4-32.1 32.2-32.1s32.2 14.4 32.2 32.1c0 1.2-0.1 2.3-0.2 3.5v316c0 70.4-27.6 128-98 128H225c-70.4 0-128-57.6-128-128v-639.8c0-70.4 57.6-128 128-128h352.2c17.8 0 32.2 14.4 32.2 32.1 0 17.6-14.2 31.9-31.8 32.1zM832.7 256.7a32.2 32.1 0 1 1 64.4 0 32.2 32.1 0 1 1-64.4 0Z"  horiz-adv-x="1024" />

    
    <glyph glyph-name="yonghutouxiang" unicode="&#58932;" d="M512-97.962667A481.962667 481.962667 0 1 0 993.962667 384 482.304 482.304 0 0 0 512-97.962667zM512 835.925333A451.925333 451.925333 0 1 0 60.074667 384 451.925333 451.925333 0 0 0 512 835.925333M512 896a512 512 0 1 1 512-512A512 512 0 0 1 512 896zM794.282667 140.970667a145.749333 145.749333 0 0 1-10.922667 13.653333 87.04 87.04 0 0 1-11.946667 11.264l-10.581333 8.192a34.133333 34.133333 0 0 1-8.192 4.778667L750.933333 179.2l-58.368 38.229333a247.466667 247.466667 0 0 1-27.306666 15.36l-78.848 38.229334v37.546666a151.552 151.552 0 0 1 52.906666 53.248 178.858667 178.858667 0 0 1 20.138667 73.728v28.672a245.76 245.76 0 0 1-2.730667 51.2l-2.389333 16.384a166.229333 166.229333 0 0 1-46.762667 113.664 140.288 140.288 0 0 1-116.053333 44.032 119.125333 119.125333 0 0 1-80.213333-45.397333 211.968 211.968 0 0 1-46.08-110.250667s-3.072-52.565333-2.730667-59.050666l2.730667-36.864a249.856 249.856 0 0 1 19.797333-73.728 130.389333 130.389333 0 0 1 53.248-53.248v-37.546667l-78.506667-38.912q-8.874667-4.437333-17.408-9.898667L273.066667 179.2l-5.802667-3.413333a108.544 108.544 0 0 1-13.312-9.898667 136.533333 136.533333 0 0 1-16.725333-16.042667 95.232 95.232 0 0 1-13.312-20.138666A52.224 52.224 0 0 1 228.693333 76.8a344.064 344.064 0 0 1 74.069334-48.810667 427.349333 427.349333 0 0 1 467.626666 25.6 123.562667 123.562667 0 0 1 24.576 23.210667 50.858667 50.858667 0 0 1 10.581334 31.402667 52.224 52.224 0 0 1-3.072 17.749333 68.266667 68.266667 0 0 1-8.192 15.018667z"  horiz-adv-x="1024" />

    
    <glyph glyph-name="zhuye1" unicode="&#58955;" d="M854.4 342.4l-300.8 256c-22.4 22.4-64 22.4-86.4 0l-300.8-256v102.4l304 268.8c22.4 22.4 57.6 22.4 80 0l304-268.8v-102.4z m-86.4 0v-256c0-35.2-35.2-41.6-70.4-41.6h-102.4v86.4c0 16-25.6 41.6-41.6 41.6h-86.4c-16 0-41.6-25.6-41.6-41.6v-86.4h-102.4c-35.2 0-70.4 9.6-70.4 41.6v256l256 214.4 259.2-214.4z"  horiz-adv-x="1024" />

    
    <glyph glyph-name="icon-test" unicode="&#58910;" d="M900.7 463.8H548.4V786.7c0 20.2-16.5 36.7-36.7 36.7-20.2 0-36.7-16.5-36.7-36.7v-322.9H122.8c-20.2 0-36.7-16.5-36.7-36.7 0-20.2 16.5-36.7 36.7-36.7h352.3v-381.6c0-20.2 16.5-36.7 36.7-36.7 20.2 0 36.7 16.5 36.7 36.7V390.4h352.3c20.2 0 36.7 16.5 36.7 36.7-0.1 20.2-16.6 36.7-36.8 36.7z"  horiz-adv-x="1024" />

    
    <glyph glyph-name="shangjiaruzhu" unicode="&#58923;" d="M776.1-1.5h-530c-41.7 0-75.7 37.4-75.7 83.4V372.5c0 11.4 9.2 20.6 20.6 20.6s20.6-9.2 20.6-20.6v-290.7c0-23.3 15.5-42.2 34.5-42.2h530c11.4 0 20.6-9.2 20.6-20.6s-9.2-20.5-20.6-20.5zM659.6 356.6c-27.4 0-53.5 9.6-74.3 26.8-20.8-17.2-46.8-26.7-74.1-26.8h-0.3c-27.3 0.1-53.2 9.6-73.9 26.8-20.8-17.2-47-26.8-74.3-26.8-27.4 0-53.5 9.6-74.3 26.8-20.8-17.2-46.9-26.8-74.3-26.8h-0.1c-60.1 0.2-110.5 46.1-117.3 106.6l-0.2 1.8 2 30.3c0.4 4.6 1.4 9.2 3.2 13.5l0.2 0.5 74.2 170.3c1.7 4.4 14.8 35.9 37.7 60.1 18.5 19.6 47.5 29.9 83.8 29.9 5.2 0 9.1-0.2 10.9-0.4l407.2 0.1c2.9 0.2 7.1 0.3 9.2 0.3 25.3 0 60.4-5.2 83.8-29.9 22.3-23.5 35-53.4 37.7-60L920.8 509c1.8-4.3 2.9-8.9 3.3-13.7l2-25.1-0.2-1.9c-6.9-64.8-56.2-111.8-117.4-111.8-27.3 0-53.4 9.6-74.3 26.8-21-17.1-47.1-26.7-74.6-26.7z m-74.3 88.3l15.9-19.2c14.6-17.7 35.9-27.8 58.4-27.8 22.6 0 43.9 10.1 58.4 27.8l15.9 19.2 15.9-19.2c14.6-17.7 35.9-27.8 58.4-27.8 39.1 0 70.9 30.6 76.2 73.1l-1.7 21.2c0 0.6-0.1 0.9-0.2 1L808.3 664l-0.1 0.3c-0.5 1.1-11.3 28.1-29.5 47.2-14 14.8-39.8 17-53.9 17-3.1 0-5.4-0.1-6.3-0.1l-0.8-0.1-411.1-0.1-0.9 0.1s-3.3 0.3-8.3 0.3c-17.2 0-40.6-3-53.9-17-15.5-16.4-26.5-39.5-29.4-47.1l-0.3-0.8-74.2-170.3c-0.1-0.3-0.2-0.7-0.2-1l-1.7-26.1c5.2-38.9 37.7-68.1 76.2-68.3 22.5 0 43.8 10.1 58.3 27.8l15.9 19.2 15.9-19.2c14.6-17.6 35.9-27.8 58.5-27.8s43.9 10.1 58.5 27.7l15.9 19.2 15.9-19.2c14.5-17.5 35.7-27.6 58.1-27.7h0.2c22.4 0 43.7 10.1 58.2 27.7l16 19.2z m133.8 283.6h-0.3 0.3zM745.1 80c-5.3 0-10.6 2-14.6 6l-91.7 91.7c-8.1 8-8.1 21.1 0 29.2l91.7 91.7c8 8.1 21.1 8.1 29.2 0 8.1-8 8.1-21.1 0-29.2l-77.1-77.1 77.1-77.1c8.1-8 8.1-21.1 0-29.2-4-4-9.3-6-14.6-6zM655.4 171.29999999999995c-11.3 0-20.6 9.2-20.6 20.5 0 11.4 9.2 20.6 20.5 20.7l249.6 0.9h0.1c11.4 0 20.6-9.2 20.6-20.5 0-11.4-9.2-20.6-20.5-20.7l-249.7-0.9z"  horiz-adv-x="1024" />

    
    <glyph glyph-name="yonghu1" unicode="&#58983;" d="M621.653333 537.173333c-11.946667 0-21.76 9.813333-21.76 21.76 0 33.28-8.533333 57.173333-24.746666 71.253334-15.786667 13.653333-37.12 15.786667-48.213334 15.786666-5.973333 0-9.813333-0.426667-9.813333-0.426666-1.28 0-2.133333-0.426667-3.413333-0.426667-10.666667 0-19.626667 7.68-21.333334 18.346667-1.706667 11.52 5.973333 23.04 17.92 24.746666 5.12 0.853333 11.093333 1.28 16.64 1.28 20.906667 0 51.2-4.693333 75.946667-26.026666 26.88-22.613333 40.106667-58.026667 40.106667-104.533334 0.426667-11.946667-9.386667-21.76-21.333334-21.76zM531.626667 809.386667c-134.4 0-243.2-108.8-243.2-243.2s108.8-243.2 243.2-243.2 243.2 108.8 243.2 243.2-108.8 243.2-243.2 243.2z m0-418.133334c-96.426667 0-174.933333 78.506667-174.933334 174.933334s78.506667 174.933333 174.933334 174.933333 174.933333-78.506667 174.933333-174.933333-78.506667-174.933333-174.933333-174.933334zM521.813333 384.426667c-235.52 0-426.666667-183.466667-426.666666-426.666667h853.333333c0 243.2-190.72 426.666667-426.666667 426.666667z m0-68.266667c177.493333 0 321.28-122.88 352-290.133333h-704c31.146667 167.253333 174.506667 290.133333 352 290.133333zM531.626667 122.453333c-8.106667 0-15.786667 4.693333-19.2 11.946667l-97.28 194.56c-3.413333 6.826667-2.986667 14.506667 0.853333 20.906667 3.84 6.4 10.666667 10.24 18.346667 10.24h34.133333c8.106667 0 15.786667-4.693333 19.2-11.946667l35.84-71.68c1.706667-2.986667 4.693333-4.693333 8.106667-4.693333s6.4 1.706667 8.106666 4.693333l35.84 71.68c3.84 7.253333 11.093333 11.946667 19.2 11.946667h34.133334c7.68 0 14.506667-3.84 18.346666-10.24 3.84-6.4 4.266667-14.506667 0.853334-20.906667l-97.28-194.56c-3.84-7.253333-11.093333-11.946667-19.2-11.946667z"  horiz-adv-x="1024" />

    
    <glyph glyph-name="yonghu2" unicode="&#58917;" d="M514 781.7c-219.9 0-398.8-178.9-398.8-398.8 0-220 178.9-398.9 398.8-398.9s398.8 178.9 398.8 398.9c0 219.8-178.9 398.8-398.8 398.8z m247.8-572.5c-29.9 54.7-77.4 98.3-134.9 123.5-31.5-23.5-70.6-37.4-112.9-37.4-42.3 0-81.4 13.9-112.9 37.4-57.5-25.1-105-68.8-134.9-123.5-34.5 49.2-54.9 109.1-54.9 173.6 0 166.9 135.8 302.7 302.7 302.7s302.7-135.8 302.7-302.7c0-64.5-20.3-124.4-54.9-173.6zM514 484.3m-155.2 0a155.2 155.2 0 1 1 310.4 0 155.2 155.2 0 1 1-310.4 0Z"  horiz-adv-x="1024" />

    
    <glyph glyph-name="shixinjiantou-xiangshang-copy" unicode="&#58970;" d="M76 570L490.6 155.29999999999995c5.7-5.7 13.3-8.79999999 21.4-8.8s15.69999999 3.2 21.4 8.8L948 570c8.6 8.6 11.2 21.59999999 6.5 32.9-4.7 11.3-15.69999999 18.6-27.9 18.6l-829.3 0c-12.2 0-23.2-7.4-27.9-18.6-4.6-11.3-2.1-24.3 6.6-32.9z"  horiz-adv-x="1024" />

    
    <glyph glyph-name="icon_CheckBox_select" unicode="&#58881;" d="M910.222222-128H113.777778a113.777778 113.777778 0 0 0-113.777778 113.777778V782.222222a113.777778 113.777778 0 0 0 113.777778 113.777778h796.444444a113.777778 113.777778 0 0 0 113.777778-113.777778v-796.444444a113.777778 113.777778 0 0 0-113.777778-113.777778z m56.888889 853.333333a113.777778 113.777778 0 0 1-113.777778 113.777778H170.666667a113.777778 113.777778 0 0 1-113.777778-113.777778v-682.666666a113.777778 113.777778 0 0 1 113.777778-113.777778h682.666666a113.777778 113.777778 0 0 1 113.777778 113.777778V725.333333z m-520.704-562.915555a56.888889 56.888889 0 0 0-80.440889 0L164.807111 363.576889a56.888889 56.888889 0 0 0 80.440889 80.440889l160.938667-160.881778 321.763555 321.820444a56.888889 56.888889 0 0 0 80.497778-80.497777z"  horiz-adv-x="1024" />

    
    <glyph glyph-name="icon_CheckBox1" unicode="&#58882;" d="M910.222222 896H113.777778C51.2 896 0 844.8 0 782.222222v-796.444444c0-62.577778 51.2-113.777778 113.777778-113.777778h796.444444c62.577778 0 113.777778 51.2 113.777778 113.777778V782.222222c0 62.577778-51.2 113.777778-113.777778 113.777778z m56.888889-853.333333c0-62.577778-51.2-113.777778-113.777778-113.777778H170.666667c-62.577778 0-113.777778 51.2-113.777778 113.777778V725.333333c0 62.577778 51.2 113.777778 113.777778 113.777778h682.666666c62.577778 0 113.777778-51.2 113.777778-113.777778v-682.666666z"  horiz-adv-x="1024" />

    
    <glyph glyph-name="icon_backstage_qx" unicode="&#58883;" d="M249.081081 785.297297H83.027027c-13.837838 0-24.908108-11.07027-27.675676-24.908108V563.891892h885.621622V757.621622c0 16.605405-11.07027 27.675676-27.675676 27.675675h-166.054054v-55.351351c0-16.605405-11.07027-27.675676-27.675675-27.675676s-27.675676 11.07027-27.675676 27.675676V785.297297H304.432432v-55.351351c0-16.605405-11.07027-27.675676-27.675675-27.675676s-27.675676 11.07027-27.675676 27.675676V785.297297z m470.486487 110.702703c16.605405 0 27.675676-11.07027 27.675675-27.675676v-27.675675h193.72973c30.443243 0 55.351351-24.908108 55.351351-55.351352v-359.783783c0-16.605405-11.07027-27.675676-27.675675-27.675676s-27.675676 11.07027-27.675676 27.675676v83.027027H55.351351v-525.837838c0-13.837838 11.07027-24.908108 24.908108-27.675676H498.162162c16.605405 0 27.675676-11.07027 27.675676-27.675676s-11.07027-27.675676-27.675676-27.675675H55.351351c-30.443243 0-55.351351 24.908108-55.351351 55.351351V785.297297c0 30.443243 24.908108 55.351351 55.351351 55.351352h193.72973V868.324324c0 16.605405 11.07027 27.675676 27.675676 27.675676s27.675676-11.07027 27.675675-27.675676v-27.675675h387.45946V868.324324c0 16.605405 11.07027 27.675676 27.675676 27.675676zM830.27027 314.810811c-107.935135 0-193.72973-85.794595-193.729729-193.72973s85.794595-193.72973 193.729729-193.72973 193.72973 85.794595 193.72973 193.72973-85.794595 193.72973-193.72973 193.72973z m0 55.351351c138.378378 0 249.081081-110.702703 249.081081-249.081081s-110.702703-249.081081-249.081081-249.081081-249.081081 110.702703-249.081081 249.081081 110.702703 249.081081 249.081081 249.081081zM946.508108 237.318919c11.07027-11.07027 11.07027-27.675676 0-38.745946l-196.497297-196.497297c-11.07027-11.07027-27.675676-11.07027-38.745946 0-11.07027 11.07027-11.07027 27.675676 0 38.745946l196.497297 196.497297c11.07027 11.07027 30.443243 11.07027 38.745946 0zM138.378378 370.162162h138.378379c16.605405 0 27.675676-11.07027 27.675675-27.675676v-27.675675c0-16.605405-11.07027-27.675676-27.675675-27.675676H138.378378c-16.605405 0-27.675676 11.07027-27.675675 27.675676v27.675675c0 16.605405 11.07027 27.675676 27.675675 27.675676zM138.378378 204.108108h138.378379c16.605405 0 27.675676-11.07027 27.675675-27.675676v-27.675675c0-16.605405-11.07027-27.675676-27.675675-27.675676H138.378378c-16.605405 0-27.675676 11.07027-27.675675 27.675676v27.675675c0 16.605405 11.07027 27.675676 27.675675 27.675676zM442.810811 370.162162h138.378378c16.605405 0 27.675676-11.07027 27.675676-27.675676v-27.675675c0-16.605405-11.07027-27.675676-27.675676-27.675676h-138.378378c-16.605405 0-27.675676 11.07027-27.675676 27.675676v27.675675c0 16.605405 11.07027 27.675676 27.675676 27.675676z"  horiz-adv-x="1079" />

    
    <glyph glyph-name="icon_backstage_gq" unicode="&#58884;" d="M498.162162 896c273.989189 0 498.162162-224.172973 498.162162-498.162162-2.767568-19.372973-11.07027-27.675676-27.675675-27.675676s-24.908108 8.302703-27.675676 27.675676c0 243.545946-199.264865 442.810811-442.810811 442.810811S55.351351 641.383784 55.351351 397.837838s199.264865-442.810811 442.810811-442.810811c19.372973-2.767568 27.675676-11.07027 27.675676-27.675676s-8.302703-24.908108-27.675676-27.675675C224.172973-100.324324 0 123.848649 0 397.837838S224.172973 896 498.162162 896zM498.162162 757.621622c-16.605405 0-27.675676-11.07027-27.675676-27.675676v-304.432432H166.054054c-16.605405 0-27.675676-11.07027-27.675676-27.675676s11.07027-27.675676 27.675676-27.675676h332.108108c16.605405 0 27.675676 11.07027 27.675676 27.675676V729.945946c0 16.605405-11.07027 27.675676-27.675676 27.675676zM802.594595 231.783784c-13.837838 0-24.908108-11.07027-27.675676-24.908108V38.054054c0-16.605405 11.07027-27.675676 27.675676-27.675676 13.837838 0 24.908108 11.07027 27.675675 24.908108V204.108108c0 16.605405-11.07027 27.675676-27.675675 27.675676z m0-249.081081c-16.605405 0-27.675676-11.07027-27.675676-27.675676s11.07027-27.675676 27.675676-27.675676 27.675676 11.07027 27.675675 27.675676-11.07027 27.675676-27.675675 27.675676z m0 332.108108c121.772973 0 221.405405-99.632432 221.405405-221.405406s-99.632432-221.405405-221.405405-221.405405-221.405405 99.632432-221.405406 221.405405 99.632432 221.405405 221.405406 221.405406z"  horiz-adv-x="1024" />

    
    <glyph glyph-name="icon_backstage_jz" unicode="&#58885;" d="M983.578947 303.157895h-140.126315c-18.863158 115.873684-99.705263 210.189474-210.189474 250.610526 48.505263 35.031579 80.842105 91.621053 80.842105 153.6 0 105.094737-83.536842 188.631579-188.631579 188.631579s-188.631579-83.536842-188.631579-188.631579c0-64.673684 32.336842-118.568421 78.147369-153.6-107.789474-37.726316-191.326316-134.736842-210.189474-250.610526H40.421053c-16.168421 0-26.947368-10.778947-26.947369-26.947369v-377.263158c0-16.168421 10.778947-26.947368 26.947369-26.947368h943.157894c16.168421 0 26.947368 10.778947 26.947369 26.947368V276.210526c0 16.168421-10.778947 26.947368-26.947369 26.947369zM390.736842 707.368421c0 75.452632 59.284211 134.736842 134.736842 134.736842s134.736842-59.284211 134.736842-134.736842-59.284211-134.736842-134.736842-134.736842-134.736842 59.284211-134.736842 134.736842z m134.736842-188.631579c129.347368 0 239.831579-91.621053 264.084211-215.578947H261.389474c24.252632 123.957895 132.042105 215.578947 264.08421 215.578947z m431.157895-565.894737c0-16.168421-10.778947-26.947368-26.947368-26.947368H94.315789c-16.168421 0-26.947368 10.778947-26.947368 26.947368V222.315789c0 16.168421 10.778947 26.947368 26.947368 26.947369h835.368422c16.168421 0 26.947368-10.778947 26.947368-26.947369v-269.473684zM633.263158 114.526316h-80.842105v80.842105c0 16.168421-10.778947 26.947368-26.947369 26.947368s-26.947368-10.778947-26.947368-26.947368v-80.842105h-80.842105c-16.168421 0-26.947368-10.778947-26.947369-26.947369s10.778947-26.947368 26.947369-26.947368h80.842105v-80.842105c0-16.168421 10.778947-26.947368 26.947368-26.947369s26.947368 10.778947 26.947369 26.947369v80.842105h80.842105c16.168421 0 26.947368 10.778947 26.947368 26.947368s-10.778947 26.947368-26.947368 26.947369z"  horiz-adv-x="1024" />

    
    <glyph glyph-name="icon_backstage_yy" unicode="&#58888;" d="M249.081081 785.297297H83.027027c-13.837838 0-24.908108-11.07027-27.675676-24.908108V563.891892h885.621622V757.621622c0 16.605405-11.07027 27.675676-27.675676 27.675675h-166.054054v-55.351351c0-16.605405-11.07027-27.675676-27.675675-27.675676s-27.675676 11.07027-27.675676 27.675676V785.297297H304.432432v-55.351351c0-16.605405-11.07027-27.675676-27.675675-27.675676s-27.675676 11.07027-27.675676 27.675676V785.297297z m470.486487 110.702703c16.605405 0 27.675676-11.07027 27.675675-27.675676v-27.675675h193.72973c30.443243 0 55.351351-24.908108 55.351351-55.351352v-359.783783c0-16.605405-11.07027-27.675676-27.675675-27.675676s-27.675676 11.07027-27.675676 27.675676v83.027027H55.351351v-525.837838c0-13.837838 11.07027-24.908108 24.908108-27.675676H498.162162c16.605405 0 27.675676-11.07027 27.675676-27.675676s-11.07027-27.675676-27.675676-27.675675H55.351351c-30.443243 0-55.351351 24.908108-55.351351 55.351351V785.297297c0 30.443243 24.908108 55.351351 55.351351 55.351352h193.72973V868.324324c0 16.605405 11.07027 27.675676 27.675676 27.675676s27.675676-11.07027 27.675675-27.675676v-27.675675h387.45946V868.324324c0 16.605405 11.07027 27.675676 27.675676 27.675676zM276.756757 397.837838c16.605405 0 27.675676-11.07027 27.675675-27.675676v-110.702703h110.702703c16.605405 0 27.675676-11.07027 27.675676-27.675675s-11.07027-27.675676-27.675676-27.675676h-110.702703v-110.702703c0-16.605405-11.07027-27.675676-27.675675-27.675675s-27.675676 11.07027-27.675676 27.675675v110.702703H138.378378c-16.605405 0-27.675676 11.07027-27.675675 27.675676s11.07027 27.675676 27.675675 27.675675h110.702703v110.702703c0 16.605405 11.07027 27.675676 27.675676 27.675676zM830.27027 314.810811c-107.935135 0-193.72973-85.794595-193.729729-193.72973s85.794595-193.72973 193.729729-193.72973 193.72973 85.794595 193.72973 193.72973-85.794595 193.72973-193.72973 193.72973z m0 55.351351c138.378378 0 249.081081-110.702703 249.081081-249.081081s-110.702703-249.081081-249.081081-249.081081-249.081081 110.702703-249.081081 249.081081 110.702703 249.081081 249.081081 249.081081zM968.648649 148.756757h-110.702703v110.702702c0 16.605405-11.07027 27.675676-27.675676 27.675676s-27.675676-11.07027-27.675675-27.675676v-138.378378c0-16.605405 11.07027-27.675676 27.675675-27.675676h138.378379c16.605405 0 27.675676 11.07027 27.675675 27.675676s-11.07027 27.675676-27.675675 27.675676z"  horiz-adv-x="1079" />

    
    <glyph glyph-name="icon_backstage_rz" unicode="&#58889;" d="M1027.792593 676.02963L910.222222 846.696296C887.466667 877.037037 853.333333 896 815.407407 896H273.066667c-37.925926 0-72.059259-18.962963-94.814815-49.303704L60.681481 672.237037C37.925926 638.103704 11.377778 596.385185 11.377778 539.496296c0-113.777778 91.022222-204.8 204.8-204.8 68.266667 0 128.948148 34.133333 163.081481 83.437037 37.925926-53.096296 98.607407-83.437037 166.874074-83.437037s128.948148 34.133333 166.874074 83.437037c37.925926-53.096296 98.607407-83.437037 163.081482-83.437037 113.777778 0 204.8 91.022222 204.8 204.8-3.792593 56.888889-30.340741 98.607407-53.096296 136.533334zM872.296296 414.340741c-68.266667 0-125.155556 56.888889-125.155555 128.948148 0 22.755556-15.17037 37.925926-37.925926 37.925926s-37.925926-15.17037-37.925926-37.925926c0-68.266667-56.888889-128.948148-128.948148-128.948148-68.266667 0-125.155556 53.096296-125.155556 121.362963v7.585185c0 18.962963-15.17037 37.925926-37.925926 37.925926s-37.925926-15.17037-37.925926-37.925926c0-68.266667-56.888889-128.948148-128.948148-128.948148s-128.948148 56.888889-128.948148 128.948148c0 30.340741 18.962963 60.681481 37.925926 91.022222l117.57037 170.666667c11.377778 7.585185 22.755556 15.17037 34.133334 15.17037h542.34074c11.377778 0 22.755556-7.585185 30.340741-15.17037l117.570371-170.666667c18.962963-26.548148 37.925926-56.888889 37.925925-91.022222 0-72.059259-56.888889-128.948148-128.948148-128.948148zM929.185185 156.444444H796.444444V289.185185c0 22.755556-15.17037 37.925926-37.925925 37.925926s-37.925926-15.17037-37.925926-37.925926v-132.740741h-132.740741c-22.755556 0-37.925926-15.17037-37.925926-37.925925s15.17037-37.925926 37.925926-37.925926H720.592593V-52.148148c0-22.755556 15.17037-37.925926 37.925926-37.925926s37.925926 15.17037 37.925925 37.925926v132.740741h132.740741c22.755556 0 37.925926 15.17037 37.925926 37.925926s-15.17037 37.925926-37.925926 37.925925zM606.814815-52.148148H189.62963v303.407407c0 22.755556-15.17037 37.925926-37.925926 37.925926s-37.925926-15.17037-37.925926-37.925926v-341.333333c0-22.755556 15.17037-37.925926 37.925926-37.925926h455.111111c22.755556 0 37.925926 15.17037 37.925926 37.925926s-15.17037 37.925926-37.925926 37.925926z"  horiz-adv-x="1099" />

    
    <glyph glyph-name="icon_user" unicode="&#58890;" d="M512 896C228.693333 896 0 667.306667 0 384s228.693333-512 512-512 512 228.693333 512 512S795.306667 896 512 896z m0-989.866667c-187.733333 0-341.333333 85.333333-341.333333 187.733334S324.266667 281.6 512 281.6c-112.64 0-204.8 92.16-204.8 204.8s92.16 204.8 204.8 204.8 204.8-92.16 204.8-204.8-92.16-204.8-204.8-204.8c187.733333 0 341.333333-85.333333 341.333333-187.733333S699.733333-93.866667 512-93.866667z"  horiz-adv-x="1024" />

    


  </font>
</defs>
</svg>
